PathFileType	4	(X/Y/Z)	C:\Users\Basilio\Documents\Thesis Gigler\squatting_fais\c3dfiles\073\SJ_pre3\markers_experimental.trc
DataRate	CameraRate	NumFrames	NumMarkers	Units	OrigDataRate	OrigDataStartFrame	OrigNumFrames
200.000000	200.000000	4	61	mm	200.000000	165	1320
Frame#	Time	FHD			LBHD			RBHD			C7			T10			CLAV			LSHO			LUUPA			LMUPA			LDUPA			LLEP			LMEP			LRAD			LUL			LRFIN			RSHO			RUPA1			RMUPA			RDUPA			RLEP			RMEP			RRAD			RUL			RUFIN			LASI			RASI			USACR			LSACR			RSACR			LTHI1			LTHI2			LTHI3			LTHI4			LLFC			LMFC			LTIB1			LTIB2			LTIB3			LTIB4			LLMAL			LMMAL			LHEE			LMT1			LMT2			LMT5			RTHI			RTHI2			RTHI3			RTHI4			RLFC			RMFC			RTIB1			RTIB2			RTIB3			RTIB4			RLMAL			RMMAL			RHEE			RMT1			RMT2			RMT5			
		X1	Y1	Z1	X2	Y2	Z2	X3	Y3	Z3	X4	Y4	Z4	X5	Y5	Z5	X6	Y6	Z6	X7	Y7	Z7	X8	Y8	Z8	X9	Y9	Z9	X10	Y10	Z10	X11	Y11	Z11	X12	Y12	Z12	X13	Y13	Z13	X14	Y14	Z14	X15	Y15	Z15	X16	Y16	Z16	X17	Y17	Z17	X18	Y18	Z18	X19	Y19	Z19	X20	Y20	Z20	X21	Y21	Z21	X22	Y22	Z22	X23	Y23	Z23	X24	Y24	Z24	X25	Y25	Z25	X26	Y26	Z26	X27	Y27	Z27	X28	Y28	Z28	X29	Y29	Z29	X30	Y30	Z30	X31	Y31	Z31	X32	Y32	Z32	X33	Y33	Z33	X34	Y34	Z34	X35	Y35	Z35	X36	Y36	Z36	X37	Y37	Z37	X38	Y38	Z38	X39	Y39	Z39	X40	Y40	Z40	X41	Y41	Z41	X42	Y42	Z42	X43	Y43	Z43	X44	Y44	Z44	X45	Y45	Z45	X46	Y46	Z46	X47	Y47	Z47	X48	Y48	Z48	X49	Y49	Z49	X50	Y50	Z50	X51	Y51	Z51	X52	Y52	Z52	X53	Y53	Z53	X54	Y54	Z54	X55	Y55	Z55	X56	Y56	Z56	X57	Y57	Z57	X58	Y58	Z58	X59	Y59	Z59	X60	Y60	Z60	X61	Y61	Z61	

166	0.8250000000000001	-205.270004272461	1636.583862304688	-958.2754516601565	-343.4205932617188	1633.461303710938	-978.541687011719	-366.0713500976563	1620.564819335938	-844.9880371093752	-419.7903137207032	1525.425170898438	-909.6409912109377	-507.1450500488282	1190.579467773438	-915.163269042969	-309.4003906250001	1422.026733398438	-910.6443481445315	-333.3490295410157	1453.317016601563	-1083.507934570313	-416.1660461425782	1364.12255859375	-1201.653198242188	-399.5788574218751	1316.440063476563	-1202.455200195313	-447.3402709960939	1314.107666015625	-1240.24755859375	-484.6435852050782	1229.74560546875	-1287.550903320313	-555.5455932617189	1216.97900390625	-1244.946166992188	-414.4019775390626	1022.939025878906	-1137.248901367188	-377.6383056640626	1003.202697753906	-1197.984985351563	-377.3218383789063	1009.647094726563	-1090.331298828125	-320.3831176757813	1446.876098632813	-740.2283935546876	-411.1022949218751	1368.425903320313	-599.5200195312501	-398.8954162597657	1320.521850585938	-594.5596313476564	-446.3880615234376	1325.281372070313	-557.7296142578126	-474.1217651367189	1247.274169921875	-513.3484497070314	-550.1985473632814	1239.451538085938	-567.3616333007814	-459.6406555175782	1028.105102539063	-667.7725219726564	-414.0051879882814	1004.521301269531	-612.3677978515626	-400.9190368652345	1019.039428710938	-714.5639038085939	-345.9045715332032	1018.862487792969	-1038.98193359375	-350.3799743652344	1007.887451171875	-787.5271606445315	-528.5035400390626	1083.330932617188	-910.318786621094	-541.2027587890626	1055.617431640625	-938.6296997070315	-546.0927734375001	1053.317504882813	-882.9695434570315	-405.2322998046876	715.7139282226564	-1136.006103515625	-370.0193176269532	638.2150878906251	-1132.2919921875	-326.9911193847657	639.0560302734376	-1107.108642578125	-398.1004638671876	586.9393310546876	-1128.64013671875	-396.6284484863282	528.5823974609376	-1140.013305664063	-388.0470275878907	500.0632934570314	-1005.882995605469	-352.0086364746094	323.8223266601563	-1125.357788085938	-414.9209289550782	293.5213928222657	-1178.921142578125	-372.8609008789063	282.4050903320313	-1162.455200195313	-374.6249389648438	200.1376953125001	-1141.167724609375	-441.3972473144532	86.18226623535158	-1178.927978515625	-426.9220275878907	102.8912811279297	-1092.267578125	-497.0686340332032	49.23513412475587	-1140.444946289063	-270.6094055175782	55.3505325317383	-1110.832763671875	-269.4951171875001	55.5006446838379	-1148.976806640625	-305.4811096191407	35.99504470825196	-1204.234985351563	-453.9344482421876	793.4638671875002	-698.0270385742189	-419.4358520507814	737.5346069335939	-687.9787597656251	-385.7459716796876	737.9400024414064	-691.7148437500001	-447.5769653320314	658.7302246093751	-702.2490234375001	-426.5074157714845	511.6189575195314	-697.4227294921876	-411.0222778320314	481.2627563476564	-823.1778564453127	-378.8506164550782	338.6976928710938	-756.5942382812501	-407.6059570312501	268.4749145507813	-678.4064941406251	-380.9829711914063	260.9309387207032	-718.0351562500001	-396.2112121582032	210.860824584961	-744.0185546875001	-448.8100585937501	87.97889709472658	-674.8511352539064	-434.1378479003907	99.16799163818362	-763.6420288085939	-511.8255615234376	43.88451766967774	-728.1735229492189	-283.2343139648438	55.77535629272462	-716.6223144531251	-286.9555969238282	56.70199966430665	-675.4379882812501	-331.6437988281251	35.47931671142579	-629.6362304687501	
167	0.8300000000000001	-204.3603973388672	1636.527465820313	-958.5210571289065	-342.8693542480469	1633.314819335938	-978.650573730469	-365.3862609863282	1620.457885742188	-845.0877075195315	-419.1517028808595	1525.395263671875	-909.6350708007815	-507.0307617187501	1190.730712890625	-915.1326904296877	-308.8996276855469	1421.8427734375	-910.6212158203127	-332.6015930175782	1453.09765625	-1083.439453125	-415.314178466797	1364.024047851563	-1201.62255859375	-398.7795715332032	1316.317260742188	-1202.431762695313	-446.4956359863282	1314.0576171875	-1240.31787109375	-483.9165344238282	1229.8046875	-1287.69482421875	-554.9804687500001	1217.233154296875	-1245.214111328125	-414.4497680664064	1022.935607910156	-1137.187866210938	-377.5870056152344	1003.111022949219	-1197.871948242188	-377.3791503906251	1009.635864257813	-1090.2109375	-319.8581848144532	1446.838989257813	-740.2177734375001	-410.9453125000001	1368.589965820313	-599.2117309570314	-398.611541748047	1320.655151367188	-594.5409545898439	-446.1327209472657	1325.450927734375	-557.6914062500001	-474.0188293457032	1247.54345703125	-513.0204467773439	-550.0722045898439	1239.759765625	-567.3637084960939	-459.7655029296876	1028.318115234375	-667.7048950195314	-414.1499328613282	1004.598449707031	-612.3097534179689	-401.044891357422	1019.085388183594	-714.5021362304689	-346.0054626464844	1018.821166992188	-1038.891967773438	-350.5518798828126	1007.868286132813	-787.4526367187502	-528.5260009765626	1083.489013671875	-910.3292236328127	-541.1572875976564	1055.707885742188	-938.6331176757815	-546.0219116210939	1053.44384765625	-882.9241943359377	-405.3447570800782	715.7746582031251	-1135.970336914063	-370.1009216308594	638.2181396484376	-1132.310180664063	-327.0505065917969	639.0741577148439	-1107.112426757813	-398.2129211425782	586.9353637695314	-1128.62109375	-396.6708068847657	528.5779418945314	-1139.995361328125	-388.0579833984376	500.0545654296876	-1005.86474609375	-352.0227355957032	323.8991699218751	-1125.39013671875	-414.9518127441407	293.5148620605469	-1178.931884765625	-372.9161682128907	282.3896179199219	-1162.40185546875	-374.5663452148438	200.1776580810547	-1141.147705078125	-441.4014892578126	86.21001434326173	-1178.971557617188	-426.9207153320314	102.9348373413086	-1092.257568359375	-497.0785217285157	49.22547149658205	-1140.441284179688	-270.5692138671876	55.34803009033205	-1110.88134765625	-269.4781494140626	55.51503753662111	-1149.010620117188	-305.4625244140626	35.99962615966798	-1204.257568359375	-454.090057373047	793.444763183594	-697.8596191406251	-419.5580444335939	737.5326538085939	-687.8604125976564	-385.8403320312501	737.9134521484376	-691.6630249023439	-447.6917724609376	658.6968994140626	-702.1099853515626	-426.559295654297	511.6080627441407	-697.4012451171876	-411.1388549804689	481.3035583496095	-823.179382324219	-378.9302368164063	338.7423095703126	-756.5607299804689	-407.6434326171876	268.4789428710938	-678.3848266601564	-380.9319763183594	260.9141540527344	-718.1149902343751	-396.2488403320314	210.8946990966797	-744.0391235351564	-448.7676391601564	88.00345611572267	-674.8505249023439	-434.2349853515626	99.19997406005862	-763.6752929687501	-511.8352355957032	43.88763427734376	-728.1681518554689	-283.2429199218751	55.76008224487306	-716.6331176757814	-286.9787292480469	56.79881668090822	-675.4698486328126	-331.6670227050782	35.49479675292969	-629.5911865234376	
168	0.835	-203.6324920654297	1636.430541992188	-958.643493652344	-342.2973937988282	1633.110473632813	-978.6840820312502	-364.6549987792969	1620.23291015625	-845.0893554687502	-418.5716552734376	1525.353271484375	-909.6360473632815	-506.9373779296876	1190.863037109375	-915.0651855468752	-308.3691101074219	1421.667358398438	-910.566589355469	-331.8181762695313	1452.986450195313	-1083.367065429688	-414.4657592773439	1363.95458984375	-1201.62109375	-398.0982360839845	1316.175415039063	-1202.260009765625	-445.8232727050782	1314.06884765625	-1240.385131835938	-483.2384338378907	1229.894775390625	-1287.843627929688	-554.3869628906251	1217.522338867188	-1245.491088867188	-414.4277648925782	1022.948791503906	-1137.097778320313	-377.6182861328126	1003.052124023438	-1197.734252929688	-377.4996337890626	1009.68212890625	-1090.085327148438	-319.3246459960938	1446.814208984375	-740.0612792968751	-410.4555053710939	1368.6689453125	-599.4309082031251	-398.332244873047	1320.770751953125	-594.4291381835939	-445.8600463867189	1325.601684570313	-557.6696166992189	-473.8548278808595	1247.800415039063	-512.6922607421876	-549.8506469726564	1240.00634765625	-567.3264770507814	-459.9732360839845	1028.44482421875	-667.6088867187501	-414.2847900390626	1004.754638671875	-612.2042236328126	-401.1832275390626	1019.124145507813	-714.4256591796876	-346.0588378906251	1018.797668457031	-1038.812744140625	-350.7234802246094	1007.832946777344	-787.2805786132815	-528.5131835937501	1083.634399414063	-910.2886962890627	-541.2910156250001	1055.870239257813	-938.555358886719	-546.3623657226564	1053.637817382813	-882.848815917969	-405.5321044921876	715.7156982421876	-1135.87060546875	-370.2065429687501	638.2326049804689	-1132.261474609375	-327.1460876464844	639.0777587890626	-1107.09521484375	-398.2661437988282	586.9213256835939	-1128.533203125	-396.7561035156251	528.5580444335939	-1139.955078125	-388.0746459960939	500.0696411132814	-1005.843444824219	-352.0989685058594	323.8909606933594	-1125.330688476563	-415.023406982422	293.5310668945313	-1178.95654296875	-372.9541931152344	282.4367980957032	-1162.412963867188	-374.6346130371094	200.1313018798829	-1141.199340820313	-441.3884887695314	86.19812011718751	-1178.943725585938	-426.9205627441407	102.9362869262696	-1092.261474609375	-497.0701904296876	49.20688247680665	-1140.4404296875	-270.6698303222657	55.37015533447267	-1110.855712890625	-269.4666748046876	55.52982330322267	-1149.009399414063	-305.4675903320313	35.99547195434571	-1204.2548828125	-454.1839294433595	793.4277343750002	-697.6979370117189	-419.6447143554689	737.5033569335939	-687.7441406250001	-385.9638671875001	737.9309692382814	-691.5457763671876	-447.8013916015626	658.6601562500001	-702.0012207031251	-426.6343688964845	511.6053466796876	-697.3711547851564	-411.2545166015626	481.3239746093751	-823.1270751953127	-378.9259948730469	338.7671508789063	-756.4979858398439	-407.6889648437501	268.5094909667969	-678.3681640625001	-381.0263977050782	261.0001525878907	-717.9879150390626	-396.2525939941407	210.9193878173829	-744.0554809570314	-448.7668762207032	88.00098419189455	-674.8799438476564	-433.851043701172	99.24056243896487	-763.9945068359376	-511.8294982910157	43.88491439819337	-728.1793212890626	-283.2622070312501	55.78597259521486	-716.6433715820314	-286.9467468261719	56.70806121826173	-675.4671630859376	-331.6612548828126	35.49744415283204	-629.6032104492189	
169	0.84	-202.9546203613282	1636.362670898438	-958.675720214844	-341.7989196777344	1632.864501953125	-978.7635498046877	-363.9925231933594	1620.186767578125	-845.0670166015627	-417.9577026367189	1525.368286132813	-909.5979614257815	-506.7922668457032	1191.025756835938	-915.007751464844	-307.8019104003907	1421.546508789063	-910.3953857421877	-331.1266479492188	1452.833618164063	-1083.33056640625	-413.8015441894532	1363.840576171875	-1201.531005859375	-397.3957519531251	1316.085693359375	-1202.014038085938	-445.0127563476564	1314.052001953125	-1240.402954101563	-482.6619567871095	1229.991455078125	-1287.99951171875	-553.8900146484376	1217.838623046875	-1245.67333984375	-414.470184326172	1023.005310058594	-1137.016357421875	-377.5824279785157	1002.955078125	-1197.604370117188	-377.5744628906251	1009.653686523438	-1089.942016601563	-318.8110656738282	1446.858276367188	-739.9144287109376	-410.0729064941407	1368.766235351563	-599.3419189453126	-398.0862731933595	1320.845458984375	-594.3070068359376	-445.5616149902345	1325.72900390625	-557.6090087890626	-473.622283935547	1247.99951171875	-512.6204223632814	-549.5889892578126	1240.26025390625	-567.3182373046876	-459.8963317871095	1028.61767578125	-667.4664916992189	-414.4244384765626	1004.860595703125	-612.0335083007814	-401.3365783691407	1019.192626953125	-714.2362060546876	-346.0954589843751	1018.789428710938	-1038.691528320313	-350.8367309570313	1007.792114257813	-787.1963500976565	-528.5286254882814	1083.755737304688	-910.236511230469	-541.2229003906251	1055.9658203125	-938.4863281250002	-546.3902587890626	1053.822143554688	-882.7775878906252	-405.5830993652345	715.7481689453126	-1135.81689453125	-370.2743225097657	638.2382202148439	-1132.189453125	-327.2227478027344	639.0823974609376	-1107.095825195313	-398.2935180664064	586.9087524414064	-1128.520874023438	-396.7926025390626	528.5954589843751	-1139.9404296875	-388.118133544922	500.0603332519532	-1005.7890625	-352.1105346679688	323.8873291015626	-1125.354858398438	-415.0628662109376	293.5155944824219	-1178.928466796875	-373.1526489257813	282.4702758789063	-1162.444946289063	-374.6248474121094	200.1363220214844	-1141.167236328125	-441.4133605957032	86.20882415771486	-1178.954711914063	-426.9204101562501	102.9345474243164	-1092.259155273438	-497.049041748047	49.24486923217775	-1140.446655273438	-270.6041870117188	55.36330413818361	-1110.897583007813	-269.4758300781251	55.50776290893556	-1149.038940429688	-305.4946289062501	35.98171997070313	-1204.24267578125	-454.2971191406251	793.3891601562502	-697.5357055664064	-419.7515869140626	737.5200195312501	-687.5711059570314	-386.047576904297	737.9548339843751	-691.4207153320314	-447.8453674316407	658.6513061523439	-701.8533325195314	-426.7286376953126	511.5875549316407	-697.2943725585939	-411.3704223632814	481.3162536621095	-823.1062622070315	-378.9660339355469	338.7641296386719	-756.5280761718751	-407.7084350585939	268.5134582519532	-678.3922119140626	-381.0289611816407	261.0006713867188	-717.9818115234376	-396.2401733398439	210.9076538085938	-744.0291137695314	-448.7425537109376	88.01158905029298	-674.8646850585939	-433.8342590332032	99.28979492187503	-763.9848632812501	-511.8366699218751	43.89882278442384	-728.1782836914064	-283.2754211425782	55.78388977050783	-716.6455078125001	-286.9419860839844	56.76210021972658	-675.4739990234376	-331.6306152343751	35.48184967041016	-629.6422729492189	
